<?xml version="1.0" standalone="no"?>
<!DOCTYPE svg PUBLIC "-//W3C//DTD SVG 20010904//EN"
 "http://www.w3.org/TR/2001/REC-SVG-20010904/DTD/svg10.dtd">
<svg version="1.0" xmlns="http://www.w3.org/2000/svg"
 width="305.000000pt" height="305.000000pt" viewBox="0 0 305.000000 305.000000"
 preserveAspectRatio="xMidYMid meet">
<metadata>
Created by potrace 1.14, written by Peter Selinger 2001-2017
</metadata>
<g transform="translate(0.000000,305.000000) scale(0.100000,-0.100000)"
fill="#000000" stroke="none">
<path d="M0 1525 l0 -1525 1525 0 1525 0 0 1525 0 1525 -1525 0 -1525 0 0
-1525z m1496 687 c-18 -52 -20 -66 -7 -58 5 3 12 23 16 43 5 27 9 33 14 21 5
-15 15 -12 71 24 36 22 76 50 90 62 l25 21 -23 -27 c-13 -14 -56 -47 -96 -73
-45 -28 -83 -62 -99 -88 -33 -50 -33 -48 -5 83 17 77 24 96 26 72 2 -19 -4
-54 -12 -80z m-37 -14 c-12 -40 -25 -104 -29 -143 l-7 -70 -2 58 c0 33 8 88
20 130 12 39 24 86 27 102 4 18 7 23 10 13 2 -9 -7 -50 -19 -90z m241 82 c-11
-21 -62 -61 -100 -79 -19 -9 -16 -5 10 16 19 15 48 40 65 55 36 33 39 34 25 8z
m-36 -68 c-23 -21 -66 -50 -95 -65 -58 -30 -53 -25 56 52 84 59 93 62 39 13z
m-103 -153 c42 -33 74 -68 49 -54 -8 4 -24 16 -35 25 -11 10 -38 30 -60 45
-29 20 -33 25 -15 20 14 -4 41 -20 61 -36z m55 -10 c16 -14 40 -38 54 -54 l25
-29 -40 31 c-45 35 -108 101 -84 87 9 -5 29 -21 45 -35z m-66 -24 c36 -30 79
-61 95 -70 17 -8 24 -15 17 -15 -18 0 -58 26 -124 82 -47 41 -57 46 -61 31 -4
-14 -5 -13 -6 5 0 12 3 22 7 22 4 0 37 -25 72 -55z m160 -85 c-8 -5 -19 -10
-25 -10 -5 0 -3 5 5 10 8 5 20 10 25 10 6 0 3 -5 -5 -10z m-1096 -728 c3 -5
-2 -53 -10 -107 -8 -54 -12 -100 -10 -102 3 -3 11 8 19 24 25 47 62 75 93 71
21 -2 29 -8 29 -23 0 -15 -7 -20 -31 -21 -50 -2 -57 -11 -50 -67 4 -28 13 -65
21 -84 12 -29 18 -33 40 -27 42 10 27 -23 -17 -39 -29 -10 -66 29 -74 78 -3
25 -10 47 -14 50 -10 6 -29 -38 -36 -85 -5 -30 -11 -40 -25 -40 -23 0 -24 13
-4 156 20 139 21 177 7 182 -20 6 -13 20 16 30 35 13 40 14 46 4z m637 -12
c22 -12 24 -29 6 -54 -13 -18 -42 -14 -50 7 -5 13 9 57 18 57 4 0 15 -5 26
-10z m645 -7 c-3 -10 -8 -44 -12 -77 l-7 -59 31 23 c20 15 37 20 51 15 36 -11
42 -36 29 -123 -12 -90 -8 -115 19 -105 16 6 16 5 4 -10 -16 -21 -44 -22 -60
-3 -9 11 -9 34 0 99 13 94 9 117 -20 117 -35 0 -58 -44 -71 -135 -10 -69 -15
-85 -29 -85 -16 0 -16 7 0 123 21 146 23 203 7 213 -8 5 -6 10 8 15 35 14 56
10 50 -8z m-993 -105 c23 -18 31 -69 15 -91 -8 -10 -39 -27 -68 -37 -56 -19
-62 -31 -45 -77 6 -18 55 -16 77 4 29 26 35 5 7 -23 -31 -30 -81 -35 -109 -9
-25 22 -34 72 -25 132 12 84 95 140 148 101z m111 -55 c-5 -38 -9 -88 -9 -113
0 -41 2 -45 25 -45 53 0 92 113 55 161 -19 25 -19 53 1 61 29 11 47 -21 46
-84 -2 -115 -52 -179 -135 -174 -33 2 -49 62 -37 138 10 60 9 69 -6 80 -20 15
-18 18 16 32 50 20 52 16 44 -56z m222 20 c-3 -27 -9 -79 -13 -116 l-6 -68 29
6 29 6 -27 -24 c-29 -27 -65 -27 -75 -1 -3 8 0 52 7 99 11 78 11 88 -5 105
-17 19 -17 20 6 29 13 5 32 10 43 10 17 1 18 -4 12 -46z m124 31 c0 -14 2 -14
22 0 46 33 91 12 91 -42 1 -15 -3 -60 -8 -101 -8 -72 -7 -73 14 -66 11 3 21 2
21 -2 0 -33 -73 -46 -84 -16 -4 10 -2 57 5 106 13 92 7 113 -25 101 -25 -10
-45 -55 -56 -131 -5 -37 -10 -74 -10 -80 0 -14 -36 -18 -43 -5 -3 4 2 50 9
102 14 88 13 96 -2 107 -20 15 -18 18 16 32 36 14 50 13 50 -5z m412 -7 c4 -7
8 -25 8 -40 0 -33 -23 -33 -28 1 -2 11 -10 26 -19 33 -13 11 -18 10 -33 -9
-26 -32 -46 -126 -34 -160 12 -33 56 -42 85 -16 10 9 19 12 19 6 0 -17 -51
-52 -76 -52 -32 0 -64 33 -65 68 -3 91 20 159 63 180 26 12 69 7 80 -11z m413
-2 c14 -13 25 -30 25 -38 0 -31 -40 -65 -91 -77 -50 -12 -51 -13 -45 -43 12
-57 41 -71 84 -41 33 23 38 10 6 -15 -38 -30 -78 -27 -104 7 -19 23 -21 37
-18 89 4 68 26 108 69 130 34 18 47 16 74 -12z m207 14 c19 -10 20 -17 13
-110 -7 -107 -3 -128 23 -107 13 11 14 11 10 -2 -2 -8 -17 -19 -32 -25 -39
-14 -48 6 -39 85 13 119 11 135 -16 135 -38 0 -62 -42 -73 -134 -9 -70 -13
-81 -30 -81 -16 0 -18 5 -13 33 22 130 23 152 10 173 -13 20 -12 22 8 28 35 9
47 7 47 -10 0 -13 5 -12 26 5 31 24 38 25 66 10z m194 -3 c13 -10 23 -11 32
-4 7 6 15 9 17 6 3 -3 -4 -67 -15 -142 -22 -156 -41 -198 -94 -216 -52 -17
-102 10 -88 48 7 20 28 14 40 -13 22 -48 74 -18 86 50 8 41 2 55 -16 37 -17
-17 -48 -15 -70 5 -41 37 -12 188 43 227 29 20 40 20 65 2z"/>
<path d="M816 1037 c-25 -53 -22 -71 11 -62 42 10 54 25 51 59 -5 47 -40 48
-62 3z"/>
<path d="M2100 1048 c-28 -46 -26 -78 3 -78 35 0 67 27 67 59 0 56 -40 67 -70
19z"/>
<path d="M2538 1063 c-23 -28 -28 -38 -38 -92 -18 -97 29 -150 68 -76 19 38
34 143 22 165 -13 25 -32 26 -52 3z"/>
</g>
</svg>
